<svg xmlns="http://www.w3.org/2000/svg" viewBox="0 0 1600 760"><defs><linearGradient id="sky" y2="1"><stop stop-color="#819a99"/><stop offset="1" stop-color="#253335"/></linearGradient><linearGradient id="fur" x1="0" x2="1"><stop stop-color="#402d21"/><stop offset=".5" stop-color="#241812"/><stop offset="1" stop-color="#5a3b25"/></linearGradient></defs><rect width="1600" height="760" fill="url(#sky)"/><path d="M0 420L240 180l185 175 240-280 260 300 220-220 455 300v305H0z" fill="#2c4242"/><path d="M0 535c190-100 330-40 510-15 190 26 320-25 470-36 205-14 340 30 620 120v156H0z" fill="#182725"/><g transform="translate(760 175)" fill="url(#fur)" stroke="#140d09" stroke-width="12"><ellipse cx="270" cy="260" rx="245" ry="210"/><circle cx="395" cy="140" r="118"/><circle cx="455" cy="85" r="48"/><path d="M466 150q100 25 138 90-80 30-170-8z"/><path d="M93 400l-40 180h105l50-175M337 420l35 170h105l-25-198"/></g><g fill="#101819" stroke="#8e713f" stroke-width="5"><circle cx="390" cy="640" r="55"/><circle cx="515" cy="625" r="48"/><circle cx="635" cy="645" r="50"/></g><path d="M350 605l40-95 45 95M475 595l40-100 45 95M595 615l35-110 50 100" fill="#202827" stroke="#a2854c" stroke-width="5"/></svg>
