<svg xmlns="http://www.w3.org/2000/svg" viewBox="0 0 1600 640" role="img" aria-labelledby="title desc">
<title id="title">Kingshot event command chamber</title><desc id="desc">An original stylized operations room with event banners, a planning table, officers, and glowing markers.</desc>
<defs><linearGradient id="bg" x1="0" y1="0" x2="1" y2="1"><stop stop-color="#071011"/><stop offset=".55" stop-color="#17211f"/><stop offset="1" stop-color="#090d0d"/></linearGradient><radialGradient id="lamp" cx="62%" cy="16%" r="55%"><stop stop-color="#f2c875" stop-opacity=".38"/><stop offset=".42" stop-color="#9f6b33" stop-opacity=".09"/><stop offset="1" stop-opacity="0"/></radialGradient><linearGradient id="red" x1="0" y1="0" x2="0" y2="1"><stop stop-color="#873b2d"/><stop offset="1" stop-color="#3c1715"/></linearGradient><linearGradient id="teal" x1="0" y1="0" x2="0" y2="1"><stop stop-color="#0f776f"/><stop offset="1" stop-color="#073a36"/></linearGradient></defs>
<rect width="1600" height="640" fill="url(#bg)"/><rect width="1600" height="640" fill="url(#lamp)"/>
<!-- command hall structure -->
<g fill="#111815" stroke="#4a3d2a" stroke-width="5"><path d="M120 560V80h118v480zM1362 560V80h118v480zM312 560V50h86v510zM1202 560V50h86v510z"/></g>
<g fill="none" stroke="#59492f" stroke-width="5" opacity=".7"><path d="M312 54Q800-92 1288 54"/><path d="M398 105Q800-16 1202 105"/></g>
<!-- event banners -->
<g stroke="#986d34" stroke-width="5"><path d="M450 86h102v230l-51 43-51-43z" fill="url(#red)"/><path d="M1048 86h102v230l-51 43-51-43z" fill="url(#teal)"/><path d="M678 74h108v214l-54 44-54-44z" fill="#172a28"/><path d="M814 74h108v214l-54 44-54-44z" fill="#2b2018"/></g>
<g fill="none" stroke="#e0b25d" stroke-width="8"><path d="m477 162 24-34 24 34-24 42zM1075 162l24-34 24 34-24 42z"/><circle cx="732" cy="160" r="30"/><path d="m846 133 44 54M890 133l-44 54"/></g>
<!-- wall planning board -->
<path d="M572 98h456v228H572z" fill="#1b1a14" stroke="#725633" stroke-width="6"/><path d="M599 122h402v178H599z" fill="#8f815f" opacity=".72"/>
<g stroke="#3e6e64" stroke-width="7" fill="none"><path d="M628 235q78-84 156-30t165-32"/><path d="M680 145q14 80 70 115t146 22"/></g>
<g fill="#62291f"><circle cx="683" cy="196" r="12"/><circle cx="802" cy="168" r="12"/><circle cx="916" cy="228" r="12"/></g>
<!-- table -->
<path d="M390 480 670 386l480 42 170 127-505 72-408-55z" fill="#473423" stroke="#765631" stroke-width="8"/><path d="M431 486 684 406l425 37 143 99-438 61-354-47z" fill="#a79062" opacity=".82"/>
<g stroke="#1a6f66" stroke-width="8" fill="none"><path d="M520 520q98-63 186-16t170-8 215-7"/><path d="M659 439q31 58 95 99t182 39"/></g>
<!-- event markers -->
<g fill="#d2a64f" stroke="#372518" stroke-width="4"><path d="m612 472 18 34-18 24-18-24z"/><path d="m748 506 18 34-18 24-18-24z"/><path d="m940 462 18 34-18 24-18-24z"/><path d="m1081 520 18 34-18 24-18-24z"/></g>
<!-- officers -->
<g fill="#080b0b" stroke="#2d302b" stroke-width="3"><g transform="translate(544 354)"><circle r="27" fill="#181c19"/><path d="M-44 48Q0 14 44 48l18 145H-62z"/></g><g transform="translate(784 338)"><circle r="29" fill="#181c19"/><path d="M-48 52Q0 14 48 52l20 168H-68z"/></g><g transform="translate(1009 353)"><circle r="27" fill="#181c19"/><path d="M-44 48Q0 14 44 48l18 145H-62z"/></g><g transform="translate(1195 388)"><circle r="25" fill="#181c19"/><path d="M-40 45Q0 12 40 45l15 122H-55z"/></g></g>
<g stroke="#c49448" stroke-width="4" opacity=".66"><path d="M519 400h50M757 390h54M984 400h50M1172 430h46"/></g>
<!-- alert light glows -->
<circle cx="501" cy="357" r="52" fill="#b94b36" opacity=".08"/><circle cx="1099" cy="359" r="54" fill="#16a394" opacity=".08"/>
<path d="M0 572q164-42 329 6t304 4 331-12 321 12 315-16v74H0z" fill="#030505" opacity=".74"/>
</svg>
